<svg xmlns="http://www.w3.org/2000/svg" viewBox="0 0 64 64" role="img" aria-labelledby="title desc">
  <title id="title">Career opportunity guide</title>
  <desc id="desc">A briefcase with an AI spark</desc>
  <defs>
    <linearGradient id="background" x1="8" y1="6" x2="56" y2="60" gradientUnits="userSpaceOnUse">
      <stop stop-color="#2f6fed"/>
      <stop offset="1" stop-color="#6e52d9"/>
    </linearGradient>
  </defs>
  <rect width="64" height="64" rx="17" fill="url(#background)"/>
  <path d="M22 24v-3.2A4.8 4.8 0 0 1 26.8 16h10.4a4.8 4.8 0 0 1 4.8 4.8V24" fill="none" stroke="#fff" stroke-width="4" stroke-linecap="round"/>
  <rect x="13" y="23" width="38" height="27" rx="6" fill="#fff"/>
  <path d="M13 33.5c5.1 3.7 11.4 5.6 19 5.6 7.5 0 13.9-1.9 19-5.6" fill="none" stroke="#b9ccff" stroke-width="3"/>
  <rect x="28.5" y="35" width="7" height="7" rx="2" fill="#2f6fed"/>
  <path d="M49 9.5l1.7 4.8 4.8 1.7-4.8 1.7-1.7 4.8-1.7-4.8-4.8-1.7 4.8-1.7L49 9.5Z" fill="#f8c64f"/>
</svg>
